# Blender v2.79 (sub 0) OBJ File: ''
# www.blender.org
mtllib banana1.mtl
o banana1
v 0.000439 -0.014317 -0.118535
v 0.000367 -0.019820 -0.114380
v -0.017019 -0.028422 -0.084677
v 0.017352 -0.028775 -0.084549
v -0.018327 -0.006470 -0.112381
v 0.019317 -0.006858 -0.112242
v 0.000634 0.000665 -0.129849
v -0.017931 0.024413 -0.134728
v 0.001274 0.056281 -0.148448
v 0.001176 0.047629 -0.146101
v -0.021772 0.032010 -0.129523
v 0.027631 0.039060 -0.124117
v 0.019717 0.024028 -0.134586
v 0.001317 0.061448 -0.146030
v -0.025613 0.039604 -0.124318
v 0.027394 -0.029072 0.043313
v 0.018997 -0.056631 0.043022
v 0.027488 -0.032265 0.009737
v 0.013918 -0.037957 0.087210
v 0.019622 -0.005497 0.016044
v 0.019559 -0.001346 0.043541
v 0.020196 -0.013818 0.079779
v 0.000114 0.045916 0.132639
v 0.008949 0.047960 0.130444
v 0.000346 0.073467 0.146323
v 0.012668 0.053073 0.125075
v -0.000013 0.030405 0.124935
v 0.012414 0.023421 0.110996
v -0.028023 -0.028503 0.043105
v -0.020188 -0.056229 0.042877
v -0.015059 -0.037662 0.087102
v -0.000685 -0.047833 0.090245
v -0.020064 -0.058466 0.003225
v -0.000711 -0.067880 0.042843
v -0.000737 -0.058337 0.075714
v -0.027929 -0.031698 0.009529
v 0.000986 0.030411 -0.142851
v 0.000846 0.017962 -0.138982
v -0.008509 0.058443 0.119615
v 0.000460 0.077230 0.126715
v 0.000323 0.060487 0.117417
v 0.009092 0.058262 0.119678
v -0.000513 -0.022117 0.114807
v -0.000577 -0.030127 0.109942
v -0.014910 -0.014391 0.110778
v -0.020784 -0.013401 0.079626
v 0.001369 0.072965 -0.128243
v -0.017699 0.054636 -0.113846
v 0.001350 0.072349 -0.125043
v 0.001173 0.060703 -0.109453
v -0.018063 0.030486 -0.082324
v 0.000816 0.037948 -0.076031
v 0.017358 -0.002728 -0.014657
v 0.000262 0.007945 -0.010255
v 0.000131 0.005756 0.018595
v -0.017017 -0.002378 -0.014786
v -0.019566 -0.005098 0.015895
v -0.019625 -0.000944 0.043395
v 0.000086 0.010305 0.043578
v 0.019121 -0.058865 0.003370
v -0.000630 -0.070341 0.014016
v 0.001083 0.039022 -0.144476
v -0.000516 -0.069088 -0.012849
v -0.000573 -0.069719 0.000674
v -0.008705 0.032724 0.101383
v 0.008899 0.032543 0.101449
v 0.000186 0.043744 0.108119
v 0.019949 0.054251 -0.113707
v 0.027246 0.011542 -0.097184
v 0.019582 0.030101 -0.082186
v -0.012228 0.053330 0.124981
v -0.016670 0.014953 -0.059480
v 0.000451 0.016137 -0.038849
v 0.017702 0.014600 -0.059352
v 0.000151 0.036396 0.097467
v -0.012479 0.023678 0.110903
v -0.014462 0.022200 0.091581
v -0.020688 0.003967 0.101155
v -0.008655 0.048140 0.130378
v -0.000105 0.020801 0.123092
v -0.008964 0.014555 0.120450
v -0.023964 -0.006660 -0.072106
v -0.024351 -0.027645 -0.025598
v -0.025994 0.012086 -0.097382
v 0.000588 0.023761 -0.054196
v 0.024647 -0.007158 -0.071923
v -0.000448 -0.014107 0.119669
v 0.008641 0.014375 0.120516
v -0.000212 0.010703 0.124432
v 0.014067 -0.014686 0.110885
v 0.000118 0.029631 0.087659
v 0.014512 0.021905 0.091689
v 0.000093 0.020614 0.069161
v -0.014506 0.010738 0.072196
v -0.017453 -0.053057 -0.036359
v -0.000357 -0.063733 -0.040765
v 0.020293 0.003547 0.101308
v 0.016918 -0.053410 -0.036231
v 0.024256 -0.028143 -0.025418
v 0.000193 -0.031330 -0.099590
v 0.000072 0.011597 0.050665
v 0.014468 0.010440 0.072303
v 0.000095 -0.037583 -0.089832
v -0.000072 -0.047815 -0.073855
v -0.000223 -0.055822 -0.055120
vn -0.0043 -0.6793 -0.7338
vn -0.0047 -0.7113 -0.7028
vn -0.6728 -0.6160 -0.4098
vn 0.6932 -0.5915 -0.4118
vn -0.7626 -0.4247 -0.4880
vn 0.7271 -0.4616 -0.5081
vn -0.0025 -0.5385 -0.8426
vn -0.5394 -0.2042 -0.8169
vn -0.1304 0.0801 -0.9882
vn 0.0014 -0.2245 -0.9745
vn -0.7347 0.0841 -0.6731
vn 0.9212 0.2751 -0.2753
vn 0.5740 -0.2508 -0.7795
vn 0.0095 0.6544 -0.7561
vn -0.9225 0.2066 -0.3262
vn 0.9956 0.0146 0.0921
vn 0.7785 -0.5928 0.2064
vn 0.9950 -0.0910 -0.0407
vn 0.7832 -0.4537 0.4251
vn 0.8590 0.5099 -0.0448
vn 0.7296 0.6717 -0.1281
vn 0.9941 0.0189 0.1065
vn -0.0080 -0.4448 0.8956
vn 0.6104 -0.3390 0.7159
vn -0.2839 0.1590 0.9456
vn 0.9816 0.1832 0.0532
vn -0.0077 -0.4184 0.9082
vn 0.8881 0.0281 0.4589
vn -0.9958 0.0350 0.0847
vn -0.7919 -0.5767 0.2005
vn -0.7955 -0.4376 0.4192
vn -0.0105 -0.8189 0.5738
vn -0.6738 -0.7374 -0.0476
vn -0.0106 -0.9899 0.1417
vn -0.0109 -0.9074 0.4201
vn -0.9963 -0.0707 -0.0482
vn 0.0011 -0.2419 -0.9703
vn -0.0013 -0.4525 -0.8918
vn -0.7403 0.5094 -0.4387
vn 0.3020 0.7677 -0.5653
vn 0.0084 0.5165 -0.8563
vn 0.6707 0.4667 -0.5764
vn -0.0090 -0.5922 0.8057
vn -0.0095 -0.6495 0.7603
vn -0.7739 -0.2966 0.5596
vn -0.9943 0.0393 0.0991
vn 0.0109 0.9699 -0.2431
vn -0.6354 0.7062 0.3124
vn 0.0077 0.9061 0.4230
vn 0.1062 0.8048 0.5840
vn -0.7567 0.5236 0.3915
vn 0.0331 0.8219 0.5687
vn 0.8088 0.5789 0.1034
vn 0.0090 0.9708 0.2398
vn 0.0104 0.9985 -0.0534
vn -0.7485 0.6565 0.0932
vn -0.8481 0.5274 -0.0512
vn -0.7795 0.6208 -0.0837
vn -0.0586 0.9778 -0.2013
vn 0.6590 -0.7510 -0.0426
vn -0.0102 -0.9998 0.0182
vn 0.0019 -0.1855 -0.9826
vn -0.0096 -0.9932 -0.1161
vn -0.0100 -0.9989 -0.0466
vn -0.6401 0.5669 -0.5187
vn 0.7353 0.5115 -0.4447
vn 0.0096 0.6584 -0.7526
vn 0.6806 0.6792 0.2747
vn 0.9994 -0.0338 0.0024
vn 0.7471 0.5222 0.4112
vn -0.9845 0.1639 0.0621
vn -0.7836 0.5540 0.2813
vn 0.0082 0.9335 0.3584
vn 0.7210 0.6058 0.3364
vn 0.1274 0.8185 -0.5602
vn -0.9092 0.1097 0.4016
vn -0.7791 0.5822 -0.2324
vn -0.9783 0.1301 0.1610
vn -0.6227 -0.3264 0.7112
vn -0.0015 0.2038 0.9790
vn -0.6445 0.0755 0.7608
vn -0.9956 -0.0883 -0.0302
vn -0.9927 0.1180 -0.0253
vn -0.9975 0.0339 0.0619
vn -0.0996 0.8530 0.5123
vn 0.9982 -0.0599 -0.0057
vn -0.0066 -0.3112 0.9503
vn 0.5990 0.0607 0.7984
vn -0.0039 -0.0248 0.9997
vn 0.7906 -0.2543 0.5571
vn -0.1095 0.8521 -0.5118
vn 0.7195 0.6202 -0.3125
vn 0.0777 0.8975 -0.4342
vn -0.7531 0.6176 -0.2266
vn -0.8811 -0.4394 -0.1746
vn -0.0924 -0.9460 -0.3106
vn 0.9799 0.1665 0.1100
vn 0.8036 -0.5508 -0.2254
vn 0.9969 0.0666 -0.0429
vn -0.0062 -0.8167 -0.5770
vn 0.0074 0.9511 -0.3087
vn 0.8713 0.4561 -0.1811
vn -0.0066 -0.8420 -0.5395
vn 0.1019 -0.8805 -0.4629
vn -0.0249 -0.8981 -0.4391
usemtl None
s 1
f 1//1 2//2 3//3
f 1//1 4//4 2//2
f 1//1 3//3 5//5
f 1//1 6//6 4//4
f 7//7 6//6 1//1
f 7//7 1//1 5//5
f 8//8 9//9 10//10
f 11//11 9//9 8//8
f 9//9 12//12 13//13
f 14//14 12//12 9//9
f 10//10 9//9 13//13
f 14//14 9//9 15//15
f 9//9 11//11 15//15
f 16//16 17//17 18//18
f 16//16 19//19 17//17
f 20//20 16//16 18//18
f 21//21 22//22 16//16
f 22//22 19//19 16//16
f 21//21 16//16 20//20
f 23//23 24//24 25//25
f 25//25 24//24 26//26
f 27//27 24//24 23//23
f 27//27 28//28 24//24
f 26//26 24//24 28//28
f 29//29 30//30 31//31
f 30//30 32//32 31//31
f 33//33 34//34 30//30
f 30//30 34//34 35//35
f 36//36 33//33 30//30
f 29//29 36//36 30//30
f 32//32 30//30 35//35
f 8//8 37//37 38//38
f 38//38 5//5 8//8
f 37//37 13//13 38//38
f 38//38 13//13 6//6
f 38//38 6//6 7//7
f 5//5 38//38 7//7
f 39//39 40//40 41//41
f 40//40 42//42 41//41
f 40//40 39//39 25//25
f 40//40 26//26 42//42
f 25//25 26//26 40//40
f 43//43 31//31 44//44
f 31//31 32//32 44//44
f 31//31 43//43 45//45
f 46//46 29//29 31//31
f 45//45 46//46 31//31
f 47//47 48//48 49//49
f 47//47 15//15 48//48
f 49//49 48//48 50//50
f 48//48 15//15 51//51
f 48//48 52//52 50//50
f 48//48 51//51 52//52
f 53//53 54//54 55//55
f 56//56 55//55 54//54
f 57//57 58//58 55//55
f 56//56 57//57 55//55
f 55//55 58//58 59//59
f 20//20 55//55 21//21
f 55//55 59//59 21//21
f 53//53 55//55 20//20
f 60//60 17//17 34//34
f 17//17 35//35 34//34
f 33//33 61//61 34//34
f 60//60 34//34 61//61
f 8//8 10//10 62//62
f 8//8 62//62 37//37
f 8//8 15//15 11//11
f 15//15 8//8 5//5
f 63//63 64//64 33//33
f 63//63 60//60 64//64
f 64//64 61//61 33//33
f 64//64 60//60 61//61
f 18//18 17//17 60//60
f 32//32 35//35 17//17
f 17//17 19//19 32//32
f 39//39 41//41 65//65
f 41//41 66//66 67//67
f 65//65 41//41 67//67
f 41//41 42//42 66//66
f 47//47 68//68 12//12
f 47//47 12//12 14//14
f 12//12 69//69 13//13
f 12//12 70//70 69//69
f 68//68 70//70 12//12
f 25//25 39//39 71//71
f 39//39 65//65 71//71
f 10//10 13//13 62//62
f 62//62 13//13 37//37
f 72//72 54//54 73//73
f 72//72 56//56 54//54
f 74//74 73//73 54//54
f 74//74 54//54 53//53
f 43//43 44//44 19//19
f 32//32 19//19 44//44
f 67//67 66//66 75//75
f 65//65 67//67 75//75
f 76//76 77//77 78//78
f 65//65 77//77 76//76
f 76//76 27//27 79//79
f 76//76 80//80 27//27
f 71//71 76//76 79//79
f 71//71 65//65 76//76
f 76//76 81//81 80//80
f 76//76 78//78 81//81
f 72//72 82//82 83//83
f 72//72 84//84 82//82
f 72//72 73//73 85//85
f 72//72 83//83 56//56
f 51//51 72//72 85//85
f 51//51 84//84 72//72
f 47//47 49//49 68//68
f 47//47 14//14 15//15
f 13//13 69//69 6//6
f 70//70 74//74 69//69
f 74//74 86//86 69//69
f 69//69 86//86 6//6
f 87//87 88//88 89//89
f 80//80 89//89 88//88
f 87//87 90//90 88//88
f 28//28 88//88 90//90
f 28//28 80//80 88//88
f 91//91 75//75 92//92
f 65//65 75//75 91//91
f 92//92 75//75 66//66
f 49//49 50//50 68//68
f 93//93 77//77 91//91
f 91//91 77//77 65//65
f 77//77 94//94 78//78
f 93//93 94//94 77//77
f 43//43 90//90 87//87
f 43//43 19//19 90//90
f 45//45 43//43 87//87
f 82//82 95//95 83//83
f 82//82 3//3 95//95
f 82//82 5//5 3//3
f 84//84 5//5 82//82
f 81//81 87//87 89//89
f 81//81 89//89 80//80
f 57//57 56//56 83//83
f 57//57 83//83 36//36
f 58//58 57//57 29//29
f 57//57 36//36 29//29
f 42//42 26//26 66//66
f 36//36 83//83 95//95
f 3//3 96//96 95//95
f 96//96 33//33 95//95
f 36//36 95//95 33//33
f 93//93 91//91 92//92
f 97//97 90//90 22//22
f 90//90 19//19 22//22
f 28//28 90//90 97//97
f 18//18 60//60 98//98
f 18//18 98//98 99//99
f 20//20 18//18 99//99
f 74//74 85//85 73//73
f 2//2 100//100 3//3
f 2//2 4//4 100//100
f 94//94 58//58 46//46
f 59//59 58//58 94//94
f 94//94 46//46 78//78
f 59//59 94//94 101//101
f 101//101 94//94 93//93
f 45//45 87//87 81//81
f 25//25 71//71 79//79
f 79//79 23//23 25//25
f 15//15 84//84 51//51
f 15//15 5//5 84//84
f 96//96 63//63 33//33
f 96//96 60//60 63//63
f 68//68 50//50 70//70
f 102//102 22//22 21//21
f 102//102 97//97 22//22
f 66//66 97//97 92//92
f 26//26 28//28 66//66
f 66//66 28//28 97//97
f 79//79 27//27 23//23
f 80//80 28//28 27//27
f 50//50 52//52 70//70
f 58//58 29//29 46//46
f 103//103 104//104 3//3
f 3//3 104//104 105//105
f 100//100 103//103 3//3
f 3//3 105//105 96//96
f 52//52 85//85 74//74
f 51//51 85//85 52//52
f 70//70 52//52 74//74
f 103//103 4//4 104//104
f 104//104 98//98 105//105
f 4//4 98//98 104//104
f 92//92 97//97 102//102
f 93//93 92//92 102//102
f 100//100 4//4 103//103
f 21//21 93//93 102//102
f 59//59 101//101 21//21
f 21//21 101//101 93//93
f 96//96 98//98 60//60
f 20//20 99//99 53//53
f 53//53 99//99 86//86
f 86//86 99//99 98//98
f 78//78 46//46 45//45
f 81//81 78//78 45//45
f 74//74 53//53 86//86
f 105//105 98//98 96//96
f 86//86 4//4 6//6
f 86//86 98//98 4//4
