v 0.00437257 0.00628702 0.02579594
v -0.00266999 0.01776958 0.04348413
v -0.00000501 -0.00833967 -0.02358660
v -0.00025844 -0.01466069 0.02683467
v 0.00584972 0.00101847 -0.03041192
v -0.00268529 0.01307421 0.03465288
v 0.00747286 0.00092699 -0.01813170
v 0.00833814 -0.00671980 0.00673974
v -0.00383464 0.01031895 0.03755239
v 0.00614681 0.00418742 0.03463010
v -0.00795111 0.00678824 -0.02588601
v -0.00462053 -0.00836377 0.03030343
v 0.00026652 0.01236956 -0.03973465
v 0.00838173 0.01500401 -0.03402883
v -0.00020955 -0.00606885 0.03725993
v 0.00006440 0.02153001 0.03953651
v -0.00443866 0.00986871 0.03166756
v -0.00025047 -0.01756730 0.01682319
v 0.00604203 0.01963071 -0.03085821
v -0.00521679 0.00238278 -0.00072918
v 0.00015926 0.00330971 -0.03577463
v -0.00005578 -0.01145604 -0.01872040
v -0.00010184 -0.01389472 -0.01301416
v -0.00003779 0.01236772 0.04182638
v 0.00525120 -0.00565688 -0.02197732
v -0.00561599 0.00113670 -0.03045422
v -0.00006588 0.00944265 0.04126486
v 0.00032325 0.02159577 -0.02956242
v -0.00534971 -0.01305280 -0.00729999
v 0.00035399 0.02024898 -0.04143950
v -0.00001206 0.00663948 0.01920553
v -0.00276405 0.00754045 0.04046035
v 0.00826448 0.00662266 -0.02582576
v -0.00024240 -0.01146154 0.03126061
v 0.00594259 0.00143300 0.00866079
v 0.00438611 0.00977890 0.03170033
v -0.00014252 -0.01630436 -0.00864188
v 0.00037721 0.02514295 -0.03431095
v 0.00000602 0.00486047 0.00943778
v 0.00022363 0.00857784 -0.03855650
v 0.00007776 -0.00292935 -0.03106325
v 0.00000097 0.01709202 0.04417266
v 0.00425061 -0.00136578 0.03754714
v -0.00017048 -0.00118950 0.04022246
v -0.00262549 0.02090752 0.04020597
v -0.00019090 -0.01793533 -0.00013939
v -0.00633487 0.00431551 0.03458360
v 0.00010611 0.02662956 0.04236838
v 0.00036725 0.02182282 -0.04070307
v -0.00549515 0.01054290 -0.03726071
v 0.00010360 0.00802218 -0.00805835
v -0.00511110 0.00766149 -0.01434204
v -0.00666500 0.01285675 -0.03567540
v -0.00009859 0.00636710 0.04167312
v 0.00273537 0.02085245 0.04022504
v -0.00783485 0.01516960 -0.03409009
v 0.00269187 0.01771451 0.04350420
v 0.00267657 0.01301914 0.03467296
v 0.00593036 0.01227520 -0.02125755
v -0.00745070 -0.00531292 -0.00402252
v 0.00038294 0.02533044 -0.03528566
v 0.00611737 -0.00110142 0.02807294
v 0.00029598 0.01499225 -0.04022961
v 0.00511903 -0.01316023 -0.00726089
v -0.00020832 -0.01812763 0.00397932
v 0.00735393 -0.00546453 -0.00396755
v 0.00597156 0.01042566 -0.03721741
v -0.00733276 0.00107861 -0.01818767
v 0.00578981 -0.01482171 0.00480071
v -0.00614489 -0.01470016 0.00475631
v 0.00420525 -0.00845358 0.03033621
v 0.00014511 0.01034428 -0.01273277
v 0.00001211 0.01419248 0.03346019
v 0.00032444 0.01761395 -0.04072456
v 0.00374716 0.01024064 0.03758091
v 0.00002497 -0.00643517 -0.02655866
v -0.00553535 0.01239243 -0.02129985
v 0.00000196 0.01213211 0.03047301
v 0.00259781 0.00748538 0.04048042
v -0.00019001 -0.00362918 0.03874170
v -0.00856887 -0.00557403 0.01690286
v 0.00592336 0.00269715 0.01703574
v -0.00457517 -0.00127597 0.03751437
v -0.00601133 0.00281970 0.01699134
v 0.00535764 0.00755406 -0.01430294
v -0.00022571 -0.01831685 0.00804303
v -0.00000555 0.00938580 0.02483877
v 0.00021464 0.01466535 -0.01938310
v -0.00445220 0.00637783 0.02576317
v 0.00002270 0.01643047 0.03670464
v 0.00004576 0.00552691 0.00065081
v -0.00854043 -0.00654735 0.00667635
v -0.00521753 -0.00554945 -0.02201642
v 0.00525294 0.00227635 -0.00069008
v 0.00575215 -0.01414121 0.01687776
v -0.00636432 -0.00097433 0.02802644
v -0.00375822 0.01935017 0.04184033
v -0.00618254 -0.01401866 0.01683337
v -0.00599310 0.00155455 0.00861539
v 0.00009973 -0.00125346 -0.03232867
v 0.00830970 -0.00574748 0.01696625
v 0.00007163 0.02548344 0.04834061
v 0.00382459 0.01927186 0.04186885
v -0.00542467 0.01974795 -0.03090051
v -0.00000771 0.00624579 0.01704692
vn 0.87132418 0.45608195 -0.18106191
vn -0.62267752 -0.32634198 0.71117763
vn -0.00660033 -0.84198993 -0.53945286
vn -0.01085339 -0.90742052 0.42008357
vn 0.72711370 -0.46162243 -0.50814407
vn -0.64005280 0.56685391 -0.51866083
vn 0.99819112 -0.05985347 -0.00566136
vn 0.99501379 -0.09104986 -0.04071213
vn -0.90923031 0.10970565 0.40157802
vn 0.97989117 0.16649361 0.10996898
vn -0.99750636 0.03391895 0.06189152
vn -0.79545528 -0.43761792 0.41921527
vn 0.00115690 -0.24190957 -0.97029811
vn 0.92116357 0.27505700 -0.27532041
vn -0.00945996 -0.64950172 0.76030127
vn 0.00843715 0.51644174 -0.85628076
vn -0.77912952 0.58217340 -0.23244639
vn -0.01064197 -0.98985507 0.14168162
vn 0.68058467 0.67922069 0.27470668
vn -0.74855338 0.65649770 0.09315901
vn -0.00245458 -0.53846062 -0.84264710
vn 0.10190260 -0.88051983 -0.46292623
vn -0.02495770 -0.89809892 -0.43908478
vn -0.00771579 -0.41843083 0.90821589
vn 0.69320301 -0.59148708 -0.41184054
vn -0.76259710 -0.42464647 -0.48797648
vn -0.00151035 0.20375968 0.97901977
vn 0.10625573 0.80479392 0.58396615
vn -0.88115530 -0.43940506 -0.17460965
vn -0.13044804 0.08011028 -0.98821336
vn 0.00740818 0.95112495 -0.30871741
vn -0.64454716 0.07549380 0.76082826
vn 0.99942582 -0.03379416 0.00244514
vn -0.01049375 -0.81888855 0.57385663
vn 0.85904265 0.50994018 -0.04479659
vn 0.71949551 0.62020183 -0.31253144
vn -0.09243000 -0.94604301 -0.31057900
vn 0.00766698 0.90611939 0.42295257
vn 0.01040399 0.99851757 -0.05342680
vn -0.00130657 -0.45247905 -0.89177408
vn -0.00471542 -0.71131916 -0.70285334
vn -0.00800857 -0.44475627 0.89561583
vn 0.79060155 -0.25425773 0.55704774
vn -0.00664625 -0.31114586 0.95033893
vn -0.74033402 0.50935249 -0.43870900
vn -0.00964092 -0.99318644 -0.11613680
vn -0.97833278 0.13011791 0.16104133
vn 0.30196629 0.76765388 -0.56526443
vn 0.00953866 0.65439998 -0.75608841
vn -0.53942679 -0.20420658 -0.81689560
vn 0.00820495 0.93355514 0.35833990
vn -0.78356363 0.55398377 0.28130059
vn -0.73970781 0.08351763 -0.66772536
vn -0.00389789 -0.02476301 0.99968575
vn 0.67070459 0.46674357 -0.57645970
vn -0.92246887 0.20661749 -0.32612941
vn 0.61043593 -0.33899134 0.71585812
vn 0.73524687 0.51146573 -0.44476382
vn 0.74714481 0.52222751 0.41116062
vn -0.99268943 0.11802592 -0.02525018
vn 0.01080616 0.96991566 -0.24320122
vn 0.99413406 0.01894202 0.10648321
vn 0.00180688 -0.18549964 -0.98264267
vn 0.80359299 -0.55084065 -0.22541715
vn -0.00996340 -0.99886324 -0.04661502
vn 0.99685460 0.06660316 -0.04295266
vn 0.57403902 -0.25081340 -0.77946895
vn -0.99563611 -0.08830068 -0.03019479
vn 0.65897324 -0.75095838 -0.04261199
vn -0.67382095 -0.73736073 -0.04758653
vn 0.78319498 -0.45374949 0.42510825
vn -0.09961214 0.85302885 0.51226869
vn 0.12742900 0.81848882 -0.56021237
vn 0.00141734 -0.22444490 -0.97448575
vn 0.88806453 0.02807905 0.45886051
vn -0.00622958 -0.81670728 -0.57701856
vn -0.75671276 0.52355773 0.39150108
vn -0.10950028 0.85210654 -0.51178524
vn 0.59900302 0.06064098 0.79844727
vn -0.00900877 -0.59219724 0.80574268
vn -0.99579261 0.03501571 0.08468159
vn 0.72961972 0.67173983 -0.12814311
vn -0.77384170 -0.29657151 0.55965557
vn -0.77950730 0.62077830 -0.08368193
vn 0.72099285 0.60580683 0.33640363
vn -0.01022866 -0.99978113 0.01824992
vn 0.07771245 0.89746746 -0.43418077
vn 0.03307861 0.82188042 0.56869886
vn -0.75313138 0.61761264 -0.22660041
vn 0.00959442 0.65841634 -0.75259277
vn 0.00900406 0.97076832 0.23984954
vn -0.99633922 -0.07063395 -0.04815609
vn -0.67278953 -0.61598530 -0.40977600
vn 0.80878881 0.57894497 0.10336050
vn 0.77846589 -0.59278605 0.20638691
vn -0.99430600 0.03928391 0.09905729
vn -0.98452326 0.16389045 0.06207958
vn -0.79194268 -0.57672719 0.20053065
vn -0.84808872 0.52737230 -0.05122476
vn -0.00429940 -0.67932487 -0.73382508
vn 0.99563841 0.01465370 0.09213804
vn -0.28388962 0.15894417 0.94559158
vn 0.98163302 0.18321148 0.05319924
vn -0.63538776 0.70618915 0.31237681
vn -0.05860399 0.97777133 -0.20131768
f 100//100 41//41 93//93
f 100//100 25//25 41//41
f 100//100 93//93 26//26
f 100//100 5//5 25//25
f 21//21 5//5 100//100
f 21//21 100//100 26//26
f 50//50 30//30 74//74
f 53//53 30//30 50//50
f 30//30 14//14 67//67
f 49//49 14//14 30//30
f 74//74 30//30 67//67
f 49//49 30//30 56//56
f 30//30 53//53 56//56
f 101//101 95//95 8//8
f 101//101 71//71 95//95
f 35//35 101//101 8//8
f 82//82 62//62 101//101
f 62//62 71//71 101//101
f 82//82 101//101 35//35
f 42//42 57//57 102//102
f 102//102 57//57 103//103
f 24//24 57//57 42//42
f 24//24 75//75 57//57
f 103//103 57//57 75//75
f 81//81 98//98 12//12
f 98//98 34//34 12//12
f 70//70 18//18 98//98
f 98//98 18//18 4//4
f 92//92 70//70 98//98
f 81//81 92//92 98//98
f 34//34 98//98 4//4
f 50//50 13//13 40//40
f 40//40 26//26 50//50
f 13//13 67//67 40//40
f 40//40 67//67 5//5
f 40//40 5//5 21//21
f 26//26 40//40 21//21
f 45//45 48//48 16//16
f 48//48 55//55 16//16
f 48//48 45//45 102//102
f 48//48 103//103 55//55
f 102//102 103//103 48//48
f 80//80 12//12 15//15
f 12//12 34//34 15//15
f 12//12 80//80 83//83
f 96//96 81//81 12//12
f 83//83 96//96 12//12
f 61//61 104//104 38//38
f 61//61 56//56 104//104
f 38//38 104//104 28//28
f 104//104 56//56 77//77
f 104//104 88//88 28//28
f 104//104 77//77 88//88
f 94//94 91//91 39//39
f 20//20 39//39 91//91
f 99//99 84//84 39//39
f 20//20 99//99 39//39
f 39//39 84//84 105//105
f 35//35 39//39 82//82
f 39//39 105//105 82//82
f 94//94 39//39 35//35
f 69//69 95//95 18//18
f 95//95 4//4 18//18
f 70//70 86//86 18//18
f 69//69 18//18 86//86
f 50//50 74//74 63//63
f 50//50 63//63 13//13
f 50//50 56//56 53//53
f 56//56 50//50 26//26
f 46//46 65//65 70//70
f 46//46 69//69 65//65
f 65//65 86//86 70//70
f 65//65 69//69 86//86
f 8//8 95//95 69//69
f 34//34 4//4 95//95
f 95//95 71//71 34//34
f 45//45 16//16 6//6
f 16//16 58//58 90//90
f 6//6 16//16 90//90
f 16//16 55//55 58//58
f 61//61 19//19 14//14
f 61//61 14//14 49//49
f 14//14 33//33 67//67
f 14//14 59//59 33//33
f 19//19 59//59 14//14
f 102//102 45//45 97//97
f 45//45 6//6 97//97
f 74//74 67//67 63//63
f 63//63 67//67 13//13
f 52//52 91//91 51//51
f 52//52 20//20 91//91
f 85//85 51//51 91//91
f 85//85 91//91 94//94
f 80//80 15//15 71//71
f 34//34 71//71 15//15
f 90//90 58//58 73//73
f 6//6 90//90 73//73
f 9//9 17//17 47//47
f 6//6 17//17 9//9
f 9//9 24//24 2//2
f 9//9 27//27 24//24
f 97//97 9//9 2//2
f 97//97 6//6 9//9
f 9//9 32//32 27//27
f 9//9 47//47 32//32
f 52//52 68//68 60//60
f 52//52 11//11 68//68
f 52//52 51//51 72//72
f 52//52 60//60 20//20
f 77//77 52//52 72//72
f 77//77 11//11 52//52
f 61//61 38//38 19//19
f 61//61 49//49 56//56
f 67//67 33//33 5//5
f 59//59 85//85 33//33
f 85//85 7//7 33//33
f 33//33 7//7 5//5
f 44//44 79//79 54//54
f 27//27 54//54 79//79
f 44//44 43//43 79//79
f 75//75 79//79 43//43
f 75//75 27//27 79//79
f 78//78 73//73 36//36
f 6//6 73//73 78//78
f 36//36 73//73 58//58
f 38//38 28//28 19//19
f 87//87 17//17 78//78
f 78//78 17//17 6//6
f 17//17 89//89 47//47
f 87//87 89//89 17//17
f 80//80 43//43 44//44
f 80//80 71//71 43//43
f 83//83 80//80 44//44
f 68//68 29//29 60//60
f 68//68 93//93 29//29
f 68//68 26//26 93//93
f 11//11 26//26 68//68
f 32//32 44//44 54//54
f 32//32 54//54 27//27
f 99//99 20//20 60//60
f 99//99 60//60 92//92
f 84//84 99//99 81//81
f 99//99 92//92 81//81
f 55//55 103//103 58//58
f 92//92 60//60 29//29
f 93//93 37//37 29//29
f 37//37 70//70 29//29
f 92//92 29//29 70//70
f 87//87 78//78 36//36
f 10//10 43//43 62//62
f 43//43 71//71 62//62
f 75//75 43//43 10//10
f 8//8 69//69 64//64
f 8//8 64//64 66//66
f 35//35 8//8 66//66
f 85//85 72//72 51//51
f 41//41 76//76 93//93
f 41//41 25//25 76//76
f 89//89 84//84 96//96
f 105//105 84//84 89//89
f 89//89 96//96 47//47
f 105//105 89//89 31//31
f 31//31 89//89 87//87
f 83//83 44//44 32//32
f 102//102 97//97 2//2
f 2//2 42//42 102//102
f 56//56 11//11 77//77
f 56//56 26//26 11//11
f 37//37 46//46 70//70
f 37//37 69//69 46//46
f 19//19 28//28 59//59
f 1//1 62//62 82//82
f 1//1 10//10 62//62
f 58//58 10//10 36//36
f 103//103 75//75 58//58
f 58//58 75//75 10//10
f 2//2 24//24 42//42
f 27//27 75//75 24//24
f 28//28 88//88 59//59
f 84//84 81//81 96//96
f 3//3 22//22 93//93
f 93//93 22//22 23//23
f 76//76 3//3 93//93
f 93//93 23//23 37//37
f 88//88 72//72 85//85
f 77//77 72//72 88//88
f 59//59 88//88 85//85
f 3//3 25//25 22//22
f 22//22 64//64 23//23
f 25//25 64//64 22//22
f 36//36 10//10 1//1
f 87//87 36//36 1//1
f 76//76 25//25 3//3
f 82//82 87//87 1//1
f 105//105 31//31 82//82
f 82//82 31//31 87//87
f 37//37 64//64 69//69
f 35//35 66//66 94//94
f 94//94 66//66 7//7
f 7//7 66//66 64//64
f 47//47 96//96 83//83
f 32//32 47//47 83//83
f 85//85 94//94 7//7
f 23//23 64//64 37//37
f 7//7 25//25 5//5
f 7//7 64//64 25//25